# xmcd CD database file
#
# Track frame offsets:
#	150
#	24005
#	45785
#	70083
#	94360
#	111958
#	131460
#	149040
#	167993
#	193618
#	215803
#	237945
#
# Disc length: 3347 seconds
#
# Revision: 16
# Processed by: cddbd v1.5.2PL0 Copyright (c) Steve Scherf et al.
# Submitted via: CDex 1.70beta3
#
DISCID=ab0d110c
DTITLE=坂本真綾 - 夕凪LOOP
DYEAR=2005
DGENRE=Pop
TTITLE0=Hello
TTITLE1=ハニー・カム
TTITLE2=ループ
TTITLE3=若葉
TTITLE4=パプリカ
TTITLE5=My Favorite Books
TTITLE6=月と走りながら
TTITLE7=NO FEAR - あいすること
TTITLE8=ユニゾン
TTITLE9=冬ですか
TTITLE10=夕凪LOOP
TTITLE11=a happy ending
EXTD=YEAR: 2005
EXTT0=
EXTT1=
EXTT2=
EXTT3=
EXTT4=
EXTT5=
EXTT6=
EXTT7=
EXTT8=
EXTT9=
EXTT10=
EXTT11=
PLAYORDER=
